<svg viewBox="0 0 24 24" fill="currentColor" xmlns="http://www.w3.org/2000/svg">
  <path d="M20.447 20.452h-3.554v-5.569c0-1.328-.025-3.037-1.85-3.037-1.853 0-2.136 1.445-2.136 2.939v5.667H9.354V9h3.414v1.561h.05c.476-.9 1.637-1.85 3.37-1.85 3.602 0 4.269 2.372 4.269 5.455v6.286zM5.337 7.433a2.062 2.062 0 1 1 0-4.124 2.062 2.062 0 0 1 0 4.124zM6.675 20.452H3.999V9h2.676v11.452zM22.225 0H1.771C.792 0 0 .774 0 1.729v20.542C0 23.225.792 24 1.771 24h20.451C23.205 24 24 23.225 24 22.271V1.729C24 .774 23.205 0 22.225 0z"/>
</svg> 